<mxfile host="app.diagrams.net" modified="2022-05-26T06:29:58.304Z" agent="5.0 (Windows NT 10.0; Win64; x64) AppleWebKit/537.36 (KHTML, like Gecko) Chrome/101.0.4951.64 Safari/537.36 Edg/101.0.1210.47" etag="wBH7EeExmFmHAkz30_B7" version="17.2.5" type="github">
  <diagram id="PAnFg_dtBRAegdKJcMGe" name="Page-1">
    <mxGraphModel dx="1422" dy="754" grid="1" gridSize="10" guides="1" tooltips="1" connect="1" arrows="1" fold="1" page="1" pageScale="1" pageWidth="850" pageHeight="1100" math="0" shadow="0">
      <root>
        <mxCell id="0" />
        <mxCell id="1" parent="0" />
        <mxCell id="-l4M8pCeTLJgpV7tEqmb-26" value="&lt;b style=&quot;font-weight: normal&quot; id=&quot;docs-internal-guid-5e33957e-7fff-9455-c55d-2ccf01532b8b&quot;&gt;&lt;span style=&quot;font-size: 11pt; font-family: arial; color: rgb(0, 0, 0); background-color: transparent; font-weight: 400; font-style: normal; font-variant: normal; text-decoration: none; vertical-align: baseline;&quot;&gt;&lt;span style=&quot;border: none ; display: inline-block ; overflow: hidden ; width: 526px ; height: 197px&quot;&gt;&lt;img src=&quot;https://lh5.googleusercontent.com/PYAcpxkV_vBISm6n3mY87xTFczIRYfvWm18b5X0IBFdAPSLEKce2Tgnp-sx4czuqIdN0h6kfqUoPl7oy1nyLZxaF-tLIQK-luyTTzEXozCVQghCgEAzGx0mXcNxoQ-o70B6sZxk_VFeerQP7Vg&quot; width=&quot;526&quot; height=&quot;197&quot; style=&quot;margin-left: 0px ; margin-top: 0px&quot;&gt;&lt;/span&gt;&lt;/span&gt;&lt;/b&gt;" style="text;whiteSpace=wrap;html=1;" vertex="1" parent="1">
          <mxGeometry x="150" y="70" width="550" height="220" as="geometry" />
        </mxCell>
      </root>
    </mxGraphModel>
  </diagram>
</mxfile>
